<svg xmlns="http://www.w3.org/2000/svg" width="60" height="80" viewBox="0 0 60 80">
  <defs>
    <linearGradient id="skin-child" x1="0" y1="0" x2="0" y2="1">
      <stop offset="0%" stop-color="#ffe4d0"/>
      <stop offset="100%" stop-color="#ffd4b8"/>
    </linearGradient>
    <linearGradient id="overalls" x1="0" y1="0" x2="0" y2="1">
      <stop offset="0%" stop-color="#fbbf24"/>
      <stop offset="100%" stop-color="#f59e0b"/>
    </linearGradient>
  </defs>
  <ellipse cx="30" cy="75" rx="10" ry="4" fill="#b45309" opacity="0.3"/>
  <rect x="24" y="58" width="6" height="18" fill="#d97706"/>
  <rect x="32" y="58" width="6" height="18" fill="#d97706"/>
  <ellipse cx="30" cy="42" rx="12" ry="14" fill="url(#overalls)"/>
  <rect x="24" y="30" width="12" height="3" fill="#fde047"/>
  <rect x="28" y="28" width="4" height="6" fill="#fde047"/>
  <circle cx="30" cy="18" r="10" fill="url(#skin-child)"/>
  <circle cx="27" cy="17" r="2.5" fill="#2a1a0a"/>
  <circle cx="33" cy="17" r="2.5" fill="#2a1a0a"/>
  <circle cx="28" cy="16" r="1" fill="#ffffff"/>
  <circle cx="34" cy="16" r="1" fill="#ffffff"/>
  <path d="M27 22 Q30 24 33 22" stroke="#ffb3b3" stroke-width="2" fill="none" stroke-linecap="round"/>
  <ellipse cx="24" cy="20" rx="3" ry="3" fill="#ffcccc" opacity="0.6"/>
  <ellipse cx="36" cy="20" rx="3" ry="3" fill="#ffcccc" opacity="0.6"/>
  <path d="M22 14 Q26 10 30 11 Q34 10 38 14" stroke="#6a4a2a" stroke-width="2.5" fill="none" stroke-linecap="round"/>
  <ellipse cx="18" cy="44" rx="5" ry="10" fill="url(#skin-child)"/>
  <ellipse cx="42" cy="44" rx="5" ry="10" fill="url(#skin-child)"/>
</svg>