<svg xmlns="http://www.w3.org/2000/svg" width="300" height="200" viewBox="0 0 300 200">
  <defs>
    <linearGradient id="wood-base" x1="0" y1="0" x2="0" y2="1">
      <stop offset="0%" stop-color="#8b6f47"/>
      <stop offset="100%" stop-color="#6a5537"/>
    </linearGradient>
    <linearGradient id="glass" x1="0" y1="0" x2="0" y2="1">
      <stop offset="0%" stop-color="#e0f2fe"/>
      <stop offset="50%" stop-color="#bae6fd"/>
      <stop offset="100%" stop-color="#7dd3fc"/>
    </linearGradient>
  </defs>
  <ellipse cx="150" cy="185" rx="140" ry="12" fill="#6a5537" opacity="0.3"/>
  <rect x="10" y="120" width="280" height="60" rx="4" fill="url(#wood-base)"/>
  <rect x="10" y="120" width="280" height="10" fill="#a67c52"/>
  <line x1="70" y1="120" x2="70" y2="180" stroke="#6a5537" stroke-width="1" opacity="0.5"/>
  <line x1="150" y1="120" x2="150" y2="180" stroke="#6a5537" stroke-width="1" opacity="0.5"/>
  <line x1="230" y1="120" x2="230" y2="180" stroke="#6a5537" stroke-width="1" opacity="0.5"/>
  <path d="M20 30 L280 30 L270 120 L30 120 Z" fill="url(#glass)" opacity="0.4" stroke="#0ea5e9" stroke-width="3"/>
  <path d="M20 30 L30 120" stroke="#0ea5e9" stroke-width="2" opacity="0.6"/>
  <path d="M280 30 L270 120" stroke="#0ea5e9" stroke-width="2" opacity="0.6"/>
  <line x1="20" y1="30" x2="280" y2="30" stroke="#0ea5e9" stroke-width="3"/>
  <ellipse cx="60" cy="150" rx="20" ry="15" fill="#d4a574" opacity="0.8"/>
  <circle cx="140" cy="155" r="18" fill="#fbbf24" opacity="0.8"/>
  <ellipse cx="220" cy="150" rx="22" ry="16" fill="#fecaca" opacity="0.8"/>
  <rect x="80" y="60" width="35" height="50" fill="#d4a574" opacity="0.3"/>
  <rect x="170" y="65" width="30" height="45" fill="#fbbf24" opacity="0.3"/>
  <text x="150" y="195" text-anchor="middle" font-family="Arial" font-size="16" font-weight="bold" fill="#ffffff" stroke="#6a5537" stroke-width="1">DISPLAY CASE</text>
</svg>