<svg xmlns="http://www.w3.org/2000/svg" width="250" height="200" viewBox="0 0 250 200">
  <defs>
    <linearGradient id="oven-body" x1="0" y1="0" x2="0" y2="1">
      <stop offset="0%" stop-color="#d4d4d8"/>
      <stop offset="100%" stop-color="#a1a1aa"/>
    </linearGradient>
    <linearGradient id="oven-door" x1="0" y1="0" x2="0" y2="1">
      <stop offset="0%" stop-color="#27272a"/>
      <stop offset="50%" stop-color="#18181b"/>
      <stop offset="100%" stop-color="#09090b"/>
    </linearGradient>
    <radialGradient id="heat-glow">
      <stop offset="0%" stop-color="#fbbf24" stop-opacity="0.8"/>
      <stop offset="100%" stop-color="#f59e0b" stop-opacity="0"/>
    </radialGradient>
  </defs>
  <ellipse cx="125" cy="185" rx="120" ry="12" fill="#71717a" opacity="0.3"/>
  <rect x="10" y="20" width="230" height="160" rx="8" fill="url(#oven-body)" stroke="#71717a" stroke-width="2"/>
  <rect x="20" y="10" width="210" height="20" rx="4" fill="#e4e4e7"/>
  <circle cx="200" cy="20" r="4" fill="#ef4444"/>
  <circle cx="215" cy="20" r="4" fill="#10b981"/>
  <rect x="30" y="50" width="190" height="120" rx="6" fill="url(#oven-door)" stroke="#52525b" stroke-width="2"/>
  <rect x="40" y="60" width="170" height="100" rx="4" fill="#3f3f46" opacity="0.6"/>
  <ellipse cx="125" cy="110" rx="60" ry="40" fill="url(#heat-glow)"/>
  <circle cx="210" cy="110" r="8" fill="#3f3f46" stroke="#71717a" stroke-width="2"/>
  <line x1="210" y1="106" x2="214" y2="102" stroke="#e4e4e7" stroke-width="2" stroke-linecap="round"/>
  <rect x="80" y="80" width="90" height="60" rx="4" fill="none" stroke="#fbbf24" stroke-width="1.5" opacity="0.3"/>
  <ellipse cx="125" cy="110" rx="30" ry="20" fill="#d4a574" opacity="0.6"/>
  <text x="125" y="195" text-anchor="middle" font-family="Arial" font-size="14" font-weight="bold" fill="#3f3f46">PRODUCTION AREA</text>
</svg>