<svg xmlns="http://www.w3.org/2000/svg" width="60" height="80" viewBox="0 0 60 80">
  <defs>
    <linearGradient id="skin-adult" x1="0" y1="0" x2="0" y2="1">
      <stop offset="0%" stop-color="#e8b89a"/>
      <stop offset="100%" stop-color="#d4a584"/>
    </linearGradient>
    <linearGradient id="dress" x1="0" y1="0" x2="0" y2="1">
      <stop offset="0%" stop-color="#f472b6"/>
      <stop offset="100%" stop-color="#ec4899"/>
    </linearGradient>
  </defs>
  <ellipse cx="30" cy="75" rx="12" ry="4" fill="#831843" opacity="0.3"/>
  <rect x="22" y="62" width="7" height="14" fill="#be185d"/>
  <rect x="31" y="62" width="7" height="14" fill="#be185d"/>
  <path d="M18 45 Q30 50 42 45 L40 62 L20 62 Z" fill="url(#dress)"/>
  <ellipse cx="30" cy="40" rx="14" ry="16" fill="url(#dress)"/>
  <circle cx="30" cy="20" r="11" fill="url(#skin-adult)"/>
  <circle cx="27" cy="19" r="2" fill="#2a1a0a"/>
  <circle cx="33" cy="19" r="2" fill="#2a1a0a"/>
  <path d="M27 24 Q30 26 33 24" stroke="#b87a6a" stroke-width="1.5" fill="none" stroke-linecap="round"/>
  <path d="M20 16 Q24 10 30 11 Q36 10 40 16" stroke="#4a2a1a" stroke-width="2.5" fill="none" stroke-linecap="round"/>
  <ellipse cx="16" cy="48" rx="6" ry="12" fill="url(#skin-adult)"/>
  <ellipse cx="44" cy="48" rx="6" ry="12" fill="url(#skin-adult)"/>
</svg>